<svg xmlns="http://www.w3.org/2000/svg" width="800" height="800" viewBox="0 0 800 800">
  <!-- Simple vector illustration to act like a "photo" (no external fonts). -->
  <defs>
    <linearGradient id="g1" x1="0" y1="0" x2="1" y2="1">
      <stop offset="0" stop-color="#60a5fa"/>
      <stop offset="1" stop-color="#34d399"/>
    </linearGradient>
    <linearGradient id="g2" x1="0" y1="1" x2="1" y2="0">
      <stop offset="0" stop-color="#fcd34d"/>
      <stop offset="1" stop-color="#f472b6"/>
    </linearGradient>
    <clipPath id="clip">
      <rect x="0" y="0" width="800" height="800" rx="40" ry="40"/>
    </clipPath>
  </defs>
  <rect width="800" height="800" fill="url(#g1)"/>
  <g clip-path="url(#clip)">
    <circle cx="600" cy="200" r="120" fill="url(#g2)" opacity="0.85"/>
    <rect x="60" y="520" width="680" height="180" rx="90" fill="#0ea5e9" opacity="0.25"/>
    <g transform="translate(200 220)">
      <path d="M120 0c66.3 0 120 53.7 120 120s-53.7 120-120 120S0 186.3 0 120 53.7 0 120 0z" fill="#1f2937" opacity="0.85"/>
      <path d="M14 225h212c40 0 72 32 72 72v59H-58v-59c0-40 32-72 72-72z" fill="#1f2937" opacity="0.85"/>
      <circle cx="120" cy="110" r="72" fill="#93c5fd" opacity="0.85"/>
      <circle cx="120" cy="110" r="42" fill="#eff6ff" opacity="0.95"/>
    </g>
  </g>
</svg>
